<svg version="1.1" xmlns="http://www.w3.org/2000/svg" xmlns:xlink="http://www.w3.org/1999/xlink" width="462.78556" height="66.44131" viewBox="0,0,462.78556,66.44131"><defs><linearGradient x1="524.65967" y1="518.77733" x2="524.65967" y2="552.51897" gradientUnits="userSpaceOnUse" id="color-1"><stop offset="0" stop-color="#ee2a7b"/><stop offset="1" stop-color="#811150"/></linearGradient></defs><g transform="translate(-8.60722,-146.77934)"><g data-paper-data="{&quot;isPaintingLayer&quot;:true}" fill-rule="nonzero" stroke-linecap="butt" stroke-linejoin="miter" stroke-miterlimit="10" stroke-dasharray="" stroke-dashoffset="0" style="mix-blend-mode: normal"><path d="M11.85722,209.97066v-59.94131h456.28556v59.94131z" fill="none" stroke="#000000" stroke-width="6.5"/><text transform="translate(25.48024,192.43101) scale(0.72532,0.72532)" font-size="40" xml:space="preserve" fill="#000000" fill-rule="nonzero" stroke="none" stroke-width="1" stroke-linecap="butt" stroke-linejoin="miter" stroke-miterlimit="10" stroke-dasharray="" stroke-dashoffset="0" font-family="&quot;Microsoft YaHei&quot;, &quot;微软雅黑&quot;, STXihei, &quot;华文细黑&quot;" font-weight="normal" text-anchor="start" style="mix-blend-mode: normal"><tspan x="0" dy="0">网页高级功能插件</tspan></text><g><path d="M294.77077,204.03677v-47.47547h154.29529v47.47547z" fill="#ff0000" stroke="#ffffff" stroke-width="1.15823"/><text transform="translate(308.28809,188.37647) scale(0.58783,0.58783)" font-size="40" xml:space="preserve" fill="#ff8800" fill-rule="nonzero" stroke="none" stroke-width="1" stroke-linecap="butt" stroke-linejoin="miter" stroke-miterlimit="10" stroke-dasharray="" stroke-dashoffset="0" font-family="&quot;ヒラギノ角ゴ Pro W3&quot;, &quot;Hiragino Kaku Gothic Pro&quot;, Osaka, &quot;メイリオ&quot;, Meiryo, &quot;ＭＳ Ｐゴシック&quot;, &quot;MS PGothic&quot;" font-weight="normal" text-anchor="start" style="mix-blend-mode: normal"><tspan x="0" dy="0">点击下载</tspan></text><path d="M435.06237,186.37294c0,0 -17.12601,0.00725 -24.90407,0.00725c-2.03744,0 -3.68898,-1.6519 -3.68898,-3.68897c0,-2.03744 1.65154,-3.68868 3.68898,-3.68868c6.52104,0 24.88405,-0.00762 24.88405,-0.00762c0,0 -1.23282,-1.24761 -6.92018,-6.9346c-1.44072,-1.4408 -1.44072,-3.77623 0,-5.21665c1.44146,-1.44042 3.77661,-1.4408 5.21703,0c4.61163,4.61096 13.23459,13.23489 13.23459,13.23489c1.44042,1.4408 1.44042,3.77653 0,5.21666c0,0 -7.44138,7.44168 -13.12866,13.12903c-1.44146,1.44146 -3.77691,1.44146 -5.21703,0c-1.44079,-1.44049 -1.44079,-3.7766 0,-5.21598c4.61171,-4.61306 6.83427,-6.83532 6.83427,-6.83532z" fill="url(#color-1)" stroke="#ffffff" stroke-width="1.15823"/></g></g></g></svg>