<svg version="1.1" xmlns="http://www.w3.org/2000/svg" xmlns:xlink="http://www.w3.org/1999/xlink" width="470.78556" height="84.17515" viewBox="0,0,470.78556,84.17515"><defs><linearGradient x1="564.50841" y1="590.43685" x2="564.50841" y2="635.60465" gradientUnits="userSpaceOnUse" id="color-1"><stop offset="0" stop-color="#ee2a7b"/><stop offset="1" stop-color="#811150"/></linearGradient></defs><g transform="translate(-2.40054,-96.13261)"><g data-paper-data="{&quot;isPaintingLayer&quot;:true}" fill-rule="nonzero" stroke-linecap="butt" stroke-linejoin="miter" stroke-miterlimit="10" stroke-dasharray="" stroke-dashoffset="0" style="mix-blend-mode: normal"><path d="M5.65054,177.05776v-77.67515h464.28556v77.67515z" fill="none" stroke="#000000" stroke-width="6.5"/><text transform="translate(14.72897,151.32895) scale(0.9399,0.9399)" font-size="40" xml:space="preserve" fill="#000000" fill-rule="nonzero" stroke="none" stroke-width="1" stroke-linecap="butt" stroke-linejoin="miter" stroke-miterlimit="10" stroke-dasharray="" stroke-dashoffset="0" font-family="&quot;Microsoft YaHei&quot;, &quot;微软雅黑&quot;, STXihei, &quot;华文细黑&quot;" font-weight="normal" text-anchor="start" style="mix-blend-mode: normal"><tspan x="0" dy="0">小李GitHub</tspan></text><path d="M256.77077,169.1137v-63.5524h206.54529v63.5524z" fill="#ff0000" stroke="#ffffff" stroke-width="1.15823"/><text transform="translate(274.86554,148.15024) scale(0.78689,0.78689)" font-size="40" xml:space="preserve" fill="#ff8800" fill-rule="nonzero" stroke="none" stroke-width="1" stroke-linecap="butt" stroke-linejoin="miter" stroke-miterlimit="10" stroke-dasharray="" stroke-dashoffset="0" font-family="&quot;Microsoft YaHei&quot;, &quot;微软雅黑&quot;, STXihei, &quot;华文细黑&quot;" font-weight="normal" text-anchor="start" style="mix-blend-mode: normal"><tspan x="0" dy="0">点击跳转</tspan></text><path d="M444.57021,145.46825c0,0 -22.9255,0.0097 -33.3375,0.0097c-2.7274,0 -4.9382,-2.2113 -4.9382,-4.9382c0,-2.7274 2.2108,-4.9378 4.9382,-4.9378c8.7293,0 33.3107,-0.0102 33.3107,-0.0102c0,0 -1.6503,-1.6701 -9.2636,-9.2829c-1.9286,-1.9287 -1.9286,-5.055 0,-6.9832c1.9296,-1.9282 5.0555,-1.9287 6.9837,0c6.1733,6.1724 17.7163,17.7167 17.7163,17.7167c1.9282,1.9287 1.9282,5.0554 0,6.9832c0,0 -9.9613,9.9617 -17.5745,17.575c-1.9296,1.9296 -5.0559,1.9296 -6.9837,0c-1.9287,-1.9283 -1.9287,-5.0555 0,-6.9823c6.1734,-6.1752 9.1486,-9.15 9.1486,-9.15z" fill="url(#color-1)" stroke="#ffffff" stroke-width="1.15823"/></g></g></svg>